<svg width="13" height="13" viewBox="0 0 13 13" xmlns="http://www.w3.org/2000/svg">
<g clip-path="url(#clip15)">
<g opacity="0.5">
<path fill-rule="evenodd" clip-rule="evenodd" d="M6.31919 5.6942L7.00396 4.25148C7.174 3.89423 7.46889 3.38052 7.88634 2.96521C8.29689 2.55634 8.78864 2.27812 9.38302 2.27812C10.6668 2.27812 11.6809 3.34746 11.6809 4.63293C11.6809 5.60953 11.2566 6.29903 10.2501 7.35063C9.99196 7.61998 9.69783 7.91111 9.3723 8.23207C8.52362 9.07077 7.46813 10.1143 6.31919 11.5094C5.17025 10.1143 4.11476 9.07077 3.26608 8.23207C2.94055 7.91111 2.64566 7.61917 2.38829 7.35063C1.38183 6.29903 0.957486 5.60953 0.957486 4.63293C0.957486 3.34746 1.97161 2.27812 3.25536 2.27812C3.84974 2.27812 4.34149 2.55634 4.75204 2.96521C5.16949 3.38052 5.46438 3.89423 5.63442 4.25148L6.31919 5.6942ZM6.61945 12.3812C6.58256 12.4272 6.53658 12.4642 6.48472 12.4895C6.43286 12.5149 6.37637 12.528 6.31919 12.528C6.26201 12.528 6.20552 12.5149 6.15366 12.4895C6.1018 12.4642 6.05582 12.4272 6.01893 12.3812C4.79264 10.8474 3.68276 9.7506 2.76898 8.84819C1.18727 7.2845 0.191528 6.30145 0.191528 4.63293C0.191528 2.88698 1.56259 1.47168 3.25536 1.47168C4.48089 1.47168 5.338 2.31844 5.86268 3.09101C6.06183 3.38536 6.21349 3.66842 6.31919 3.891C6.4517 3.61243 6.60431 3.34499 6.7757 3.09101C7.30038 2.31764 8.15749 1.47168 9.38302 1.47168C11.0758 1.47168 12.4469 2.88698 12.4469 4.63293C12.4469 6.30145 11.4511 7.2845 9.8694 8.84819C8.95562 9.7514 7.84574 10.8482 6.61945 12.3804V12.3812Z">
</g>
</g>
<defs>
<clipPath id="clip15">
<rect width="12.2553" height="12.2849" fill="white" transform="translate(0.191528 0.703857)"/>
</clipPath>
</defs>
</svg>
