<svg xmlns="http://www.w3.org/2000/svg" xmlns:xlink="http://www.w3.org/1999/xlink"><defs>
<clipPath id="clip0">
<rect width="13" height="16" fill="white" transform="translate(0.25)"/>
</clipPath>

<clipPath id="clip1">
<rect width="12.2553" height="12.2849" fill="white" transform="translate(0.191528 0.703857)"/>
</clipPath>

<clipPath id="clip2">
<rect width="27" height="33.3033" fill="white" transform="translate(0 0.0861816)"/>
</clipPath>

<clipPath id="clip3">
<rect width="14" height="16" fill="white"/>
</clipPath>
</defs><symbol id="icon-bicycle" viewBox="0 0 15 17">
<path d="M10.958 13.9656C10.4441 13.9656 9.94179 13.8131 9.51451 13.5274C9.08722 13.2418 8.75419 12.8357 8.55753 12.3606C8.36087 11.8855 8.30941 11.3627 8.40967 10.8584C8.50992 10.354 8.75739 9.89076 9.12077 9.52715C9.48415 9.16353 9.94712 8.91591 10.4511 8.81558C10.9552 8.71526 11.4776 8.76675 11.9524 8.96354C12.4271 9.16033 12.8329 9.49358 13.1185 9.92114C13.404 10.3487 13.5563 10.8514 13.5563 11.3656C13.5556 12.055 13.2816 12.7158 12.7945 13.2033C12.3074 13.6907 11.6469 13.9649 10.958 13.9656ZM10.958 9.66997C10.6229 9.66997 10.2953 9.76942 10.0166 9.95574C9.73794 10.1421 9.52075 10.4069 9.39249 10.7167C9.26423 11.0266 9.23068 11.3675 9.29606 11.6964C9.36144 12.0254 9.52283 12.3275 9.75982 12.5646C9.99681 12.8018 10.2987 12.9633 10.6275 13.0287C10.9562 13.0941 11.2969 13.0605 11.6065 12.9322C11.9162 12.8039 12.1808 12.5865 12.367 12.3077C12.5532 12.0288 12.6526 11.701 12.6526 11.3656C12.6521 10.9161 12.4734 10.4851 12.1557 10.1672C11.838 9.84931 11.4073 9.6705 10.958 9.66997Z" fill="#1D2E5B"/>
<path d="M3.50211 13.9656C2.98822 13.9656 2.48586 13.8131 2.05857 13.5274C1.63128 13.2418 1.29825 12.8357 1.10159 12.3606C0.904934 11.8855 0.853479 11.3627 0.953735 10.8584C1.05399 10.354 1.30146 9.89076 1.66484 9.52715C2.02821 9.16353 2.49119 8.91591 2.99521 8.81558C3.49923 8.71526 4.02166 8.76675 4.49644 8.96354C4.97122 9.16033 5.37702 9.49358 5.66252 9.92114C5.94803 10.3487 6.10042 10.8514 6.10042 11.3656C6.09967 12.055 5.82568 12.7158 5.33856 13.2033C4.85145 13.6907 4.191 13.9649 3.50211 13.9656ZM3.50211 9.66997C3.16696 9.66997 2.83934 9.76942 2.56067 9.95574C2.28201 10.1421 2.06481 10.4069 1.93656 10.7167C1.8083 11.0266 1.77474 11.3675 1.84013 11.6964C1.90551 12.0254 2.0669 12.3275 2.30389 12.5646C2.54087 12.8018 2.84281 12.9633 3.17152 13.0287C3.50023 13.0941 3.84095 13.0605 4.15059 12.9322C4.46022 12.8039 4.72488 12.5865 4.91108 12.3077C5.09728 12.0288 5.19666 11.701 5.19666 11.3656C5.19614 10.9161 5.01744 10.4851 4.69976 10.1672C4.38208 9.84931 3.95137 9.6705 3.50211 9.66997Z" fill="#1D2E5B"/>
<path d="M9.03766 4.25003C9.15669 4.25052 9.27463 4.22326 9.38465 4.16983C9.49467 4.11639 9.59459 4.03785 9.67863 3.93874C9.76267 3.83963 9.82917 3.72192 9.87427 3.59241C9.91938 3.46289 9.9422 3.32416 9.94141 3.18421C9.94273 3.04497 9.92042 2.90681 9.87579 2.77783C9.83116 2.64884 9.7651 2.53161 9.68147 2.43299C9.59785 2.33437 9.49834 2.25634 9.38877 2.20346C9.27919 2.15058 9.16175 2.12392 9.0433 2.12503C8.92462 2.1246 8.80703 2.15165 8.69724 2.20464C8.58745 2.25763 8.48761 2.33553 8.40342 2.43388C8.31924 2.53224 8.25236 2.64912 8.2066 2.77786C8.16084 2.90661 8.13709 3.04468 8.13672 3.18421C8.13635 3.32374 8.15936 3.46199 8.20444 3.59107C8.24951 3.72014 8.31577 3.83752 8.39943 3.93649C8.48309 4.03546 8.58251 4.11409 8.69202 4.16788C8.80153 4.22168 8.91897 4.2496 9.03766 4.25003Z" fill="#1D2E5B"/>
<path d="M10.3805 6.37507H9.14463C9.12435 6.37508 9.10445 6.36867 9.08701 6.35652C9.06957 6.34437 9.05523 6.32692 9.04549 6.30601L8.14908 4.37459C8.08592 4.23105 7.9949 4.10702 7.88339 4.01253C7.77187 3.91804 7.643 3.85574 7.50721 3.83068C7.37141 3.80563 7.2325 3.81852 7.10173 3.8683C6.97096 3.91809 6.85199 4.00338 6.75447 4.11726L4.78145 6.45476C4.6157 6.65366 4.52161 6.92008 4.5188 7.19851C4.5188 7.77625 4.87465 7.98211 5.04128 8.09832C5.84619 8.64351 6.41302 9.04228 6.72397 9.26375C6.7405 9.27558 6.75417 9.2922 6.76366 9.31203C6.77316 9.33186 6.77816 9.35422 6.77819 9.37697V11.672C6.77819 11.9578 6.96516 12.2032 7.20832 12.2175C7.26938 12.221 7.33039 12.2098 7.38767 12.1848C7.44496 12.1597 7.49732 12.1212 7.5416 12.0717C7.58587 12.0222 7.62114 11.9626 7.64526 11.8965C7.66939 11.8305 7.68187 11.7594 7.68195 11.6876V8.83211C7.68199 8.74777 7.66495 8.66464 7.63225 8.58958C7.59954 8.51452 7.5521 8.4497 7.49386 8.40047L6.44889 7.51693C6.43577 7.5059 6.42481 7.49169 6.41676 7.47526C6.4087 7.45884 6.40373 7.44057 6.40218 7.4217C6.40063 7.40282 6.40253 7.38378 6.40776 7.36584C6.41299 7.34791 6.42143 7.33149 6.43251 7.31771L7.61869 5.83054C7.63085 5.81524 7.64592 5.80354 7.66266 5.79639C7.6794 5.78924 7.69734 5.78685 7.71502 5.78941C7.7327 5.79196 7.74962 5.7994 7.76439 5.81111C7.77916 5.82282 7.79136 5.83846 7.8 5.85677L8.41625 7.16431C8.45542 7.2472 8.51274 7.31625 8.58227 7.3643C8.6518 7.41235 8.731 7.43765 8.81165 7.43757H10.3932C10.4544 7.43766 10.515 7.42312 10.5713 7.39484C10.6276 7.36655 10.6784 7.32512 10.7207 7.27305C10.7629 7.22098 10.7958 7.15935 10.8172 7.09192C10.8385 7.02448 10.848 6.95264 10.8451 6.88076C10.8332 6.59488 10.6237 6.37507 10.3805 6.37507Z" fill="#1D2E5B"/>
</symbol><symbol id="icon-bus" viewBox="0 0 14 16">
<g clip-path="url(#clip0)">
<path d="M3.50145 10.8571C3.50145 10.5417 3.3957 10.2723 3.1842 10.0491C2.9727 9.82589 2.71749 9.71429 2.41857 9.71429C2.11965 9.71429 1.86444 9.82589 1.65294 10.0491C1.44144 10.2723 1.33569 10.5417 1.33569 10.8571C1.33569 11.1726 1.44144 11.442 1.65294 11.6652C1.86444 11.8884 2.11965 12 2.41857 12C2.71749 12 2.9727 11.8884 3.1842 11.6652C3.3957 11.442 3.50145 11.1726 3.50145 10.8571ZM12.1645 10.8571C12.1645 10.5417 12.0588 10.2723 11.8473 10.0491C11.6358 9.82589 11.3806 9.71429 11.0816 9.71429C10.7827 9.71429 10.5275 9.82589 10.316 10.0491C10.1045 10.2723 9.99875 10.5417 9.99875 10.8571C9.99875 11.1726 10.1045 11.442 10.316 11.6652C10.5275 11.8884 10.7827 12 11.0816 12C11.3806 12 11.6358 11.8884 11.8473 11.6652C12.0588 11.442 12.1645 11.1726 12.1645 10.8571ZM11.7754 7.32143L11.1662 3.89286C11.138 3.75595 11.0746 3.64435 10.9759 3.55804C10.8772 3.47173 10.763 3.42857 10.6333 3.42857H2.86695C2.73723 3.42857 2.62302 3.47173 2.52432 3.55804C2.42562 3.64435 2.36217 3.75595 2.33397 3.89286L1.72485 7.32143C1.69665 7.5 1.73613 7.65774 1.84329 7.79464C1.95045 7.93155 2.08863 8 2.25783 8H11.2424C11.4116 8 11.5498 7.93155 11.6569 7.79464C11.7641 7.65774 11.8036 7.5 11.7754 7.32143ZM9.86339 1.85714C9.86339 1.7381 9.82391 1.6369 9.74495 1.55357C9.66599 1.47024 9.57011 1.42857 9.45731 1.42857H4.0429C3.9301 1.42857 3.83422 1.47024 3.75526 1.55357C3.6763 1.6369 3.63682 1.7381 3.63682 1.85714C3.63682 1.97619 3.6763 2.07738 3.75526 2.16071C3.83422 2.24405 3.9301 2.28571 4.0429 2.28571H9.45731C9.57011 2.28571 9.66599 2.24405 9.74495 2.16071C9.82391 2.07738 9.86339 1.97619 9.86339 1.85714ZM13.2474 8.33036V13.7143H12.1645V14.8571C12.1645 15.1726 12.0588 15.442 11.8473 15.6652C11.6358 15.8884 11.3806 16 11.0816 16C10.7827 16 10.5275 15.8884 10.316 15.6652C10.1045 15.442 9.99875 15.1726 9.99875 14.8571V13.7143H3.50145V14.8571C3.50145 15.1726 3.3957 15.442 3.1842 15.6652C2.9727 15.8884 2.71749 16 2.41857 16C2.11965 16 1.86444 15.8884 1.65294 15.6652C1.44144 15.442 1.33569 15.1726 1.33569 14.8571V13.7143H0.252808V8.33036C0.252808 7.66369 0.323308 7 0.464308 6.33929L1.33569 2.28571C1.38645 1.82143 1.6614 1.41369 2.16054 1.0625C2.65968 0.71131 3.30828 0.446429 4.10635 0.267857C4.90441 0.0892857 5.78566 0 6.7501 0C7.71454 0 8.5958 0.0892857 9.39386 0.267857C10.1919 0.446429 10.8405 0.71131 11.3397 1.0625C11.8388 1.41369 12.1138 1.82143 12.1645 2.28571L13.0528 6.33929C13.1825 6.94643 13.2474 7.61012 13.2474 8.33036Z" fill="#1D2E5B"/>
</g>

</symbol><symbol id="icon-facebook" viewBox="0 0 11 21">
<path d="M7.48786 20.8125H2.12929V11.1375H0V6.3525H2.06643C1.90929 4.185 2.30214 2.6025 3.26071 1.5225C3.71777 1.04316 4.27461 0.66015 4.89562 0.397985C5.51662 0.13582 6.18812 0.000268301 6.86714 0L10.6229 0V4.6125H7.66857C7.49452 5.1766 7.42799 5.76595 7.47214 6.3525H10.615V11.1375H7.47214L7.48786 20.8125ZM3.31571 19.6875H6.28571V10.0125H9.42857V7.5H6.28571V6.93C6.28571 5.43 6.28571 4.0875 7.07143 3.585L7.22071 3.4875H9.42857V1.125H6.89857C6.38444 1.11866 5.87465 1.21553 5.40225 1.40933C4.92986 1.60314 4.50541 1.88955 4.15643 2.25C3.37071 3.1725 3.04857 4.7175 3.29214 6.855L3.37071 7.4775H1.17857V10.0125H3.31571V19.6875Z" fill="#192144"/>
</symbol><symbol id="icon-heart" viewBox="0 0 13 13">
<g clip-path="url(#clip1)">
<g opacity="0.5">
<path fill-rule="evenodd" clip-rule="evenodd" d="M6.31919 5.6942L7.00396 4.25148C7.174 3.89423 7.46889 3.38052 7.88634 2.96521C8.29689 2.55634 8.78864 2.27812 9.38302 2.27812C10.6668 2.27812 11.6809 3.34746 11.6809 4.63293C11.6809 5.60953 11.2566 6.29903 10.2501 7.35063C9.99196 7.61998 9.69783 7.91111 9.3723 8.23207C8.52362 9.07077 7.46813 10.1143 6.31919 11.5094C5.17025 10.1143 4.11476 9.07077 3.26608 8.23207C2.94055 7.91111 2.64566 7.61917 2.38829 7.35063C1.38183 6.29903 0.957486 5.60953 0.957486 4.63293C0.957486 3.34746 1.97161 2.27812 3.25536 2.27812C3.84974 2.27812 4.34149 2.55634 4.75204 2.96521C5.16949 3.38052 5.46438 3.89423 5.63442 4.25148L6.31919 5.6942ZM6.61945 12.3812C6.58256 12.4272 6.53658 12.4642 6.48472 12.4895C6.43286 12.5149 6.37637 12.528 6.31919 12.528C6.26201 12.528 6.20552 12.5149 6.15366 12.4895C6.1018 12.4642 6.05582 12.4272 6.01893 12.3812C4.79264 10.8474 3.68276 9.7506 2.76898 8.84819C1.18727 7.2845 0.191528 6.30145 0.191528 4.63293C0.191528 2.88698 1.56259 1.47168 3.25536 1.47168C4.48089 1.47168 5.338 2.31844 5.86268 3.09101C6.06183 3.38536 6.21349 3.66842 6.31919 3.891C6.4517 3.61243 6.60431 3.34499 6.7757 3.09101C7.30038 2.31764 8.15749 1.47168 9.38302 1.47168C11.0758 1.47168 12.4469 2.88698 12.4469 4.63293C12.4469 6.30145 11.4511 7.2845 9.8694 8.84819C8.95562 9.7514 7.84574 10.8482 6.61945 12.3804V12.3812Z" fill="#192144"/>
</g>
</g>

</symbol><symbol id="icon-html" viewBox="0 0 27 34">
<g clip-path="url(#clip2)">
<path d="M13.6426 0.101613L13.5 0.0861816L0 1.46467V25.566L13.5 33.3895L27 25.566V1.46467L13.6426 0.101613ZM25.2344 24.5887L13.5 31.3886L1.76561 24.5887V14.7095L13.4507 21.4837L13.4701 22.7113L5.45351 18.0649L5.44295 19.2651L13.4894 23.9749L13.5088 25.2351L5.46408 20.575L5.45351 21.7751L13.5 26.485L21.6239 21.7511V20.551V16.6487L25.2432 14.5432L25.2344 24.5887ZM25.2344 13.2624L22.0147 15.1039L20.5325 15.9611L13.4666 11.8599L13.456 13.0601L19.4957 16.5595L19.4429 16.5904L19.3126 16.6641L18.4536 17.1459L13.4666 14.2586L13.456 15.4588L17.3921 17.7391L16.4591 18.3358L16.438 18.3478L13.4666 16.6418L13.456 17.842L15.4029 18.953L13.4155 20.1155L1.7973 13.3842L13.4349 6.56887L25.2344 13.2624ZM25.2344 12.0623L13.4401 5.2881L1.76561 12.0554V3.01462L13.5 1.81444L25.2344 3.01462V12.0623Z" fill="#192144"/>
</g>

</symbol><symbol id="icon-instagram" viewBox="0 0 24 24">
<path d="M17.2802 2.40088C18.4252 2.40341 19.5225 2.85937 20.3321 3.66898C21.1417 4.47858 21.5977 5.57592 21.6002 6.72088V17.2809C21.5977 18.4258 21.1417 19.5232 20.3321 20.3328C19.5225 21.1424 18.4252 21.5983 17.2802 21.6009H6.7202C5.57691 21.5958 4.48204 21.1387 3.6745 20.3294C2.86696 19.5201 2.41233 18.4242 2.4098 17.2809V6.72088C2.41233 5.57758 2.86696 4.48169 3.6745 3.67235C4.48204 2.86302 5.57691 2.40594 6.7202 2.40088H17.2802ZM17.2802 0.960876H6.7202C5.19256 0.960876 3.72748 1.56773 2.64727 2.64794C1.56706 3.72815 0.960205 5.19323 0.960205 6.72088L0.960205 17.2809C0.960205 18.8085 1.56706 20.2736 2.64727 21.3538C3.72748 22.434 5.19256 23.0409 6.7202 23.0409H17.2802C18.8078 23.0409 20.2729 22.434 21.3531 21.3538C22.4333 20.2736 23.0402 18.8085 23.0402 17.2809V6.72088C23.0402 5.19323 22.4333 3.72815 21.3531 2.64794C20.2729 1.56773 18.8078 0.960876 17.2802 0.960876V0.960876Z" fill="#192144"/>
<path d="M12.0093 7.75648C12.8504 7.75648 13.6727 8.0059 14.372 8.4732C15.0714 8.94051 15.6165 9.6047 15.9384 10.3818C16.2603 11.1589 16.3445 12.014 16.1804 12.839C16.0163 13.6639 15.6112 14.4217 15.0165 15.0165C14.4217 15.6112 13.6639 16.0163 12.839 16.1804C12.014 16.3445 11.1589 16.2602 10.3818 15.9384C9.60472 15.6165 8.94052 15.0714 8.47321 14.372C8.00591 13.6726 7.75649 12.8504 7.75649 12.0093C7.75522 11.4504 7.86436 10.8968 8.07764 10.3803C8.29091 9.86376 8.60412 9.39443 8.99928 8.99927C9.39444 8.60411 9.86377 8.2909 10.3803 8.07762C10.8969 7.86435 11.4504 7.75521 12.0093 7.75648ZM12.0093 6.31648C10.883 6.31458 9.78137 6.64684 8.84393 7.27122C7.90649 7.89559 7.17533 8.78402 6.74299 9.82408C6.31064 10.8641 6.19653 12.0091 6.4151 13.114C6.63368 14.2189 7.17511 15.2342 7.97088 16.0313C8.76664 16.8284 9.78099 17.3715 10.8855 17.592C11.9901 17.8124 13.1352 17.7002 14.176 17.2697C15.2168 16.8391 16.1065 16.1094 16.7324 15.173C17.3584 14.2366 17.6925 13.1356 17.6925 12.0093C17.6938 11.2621 17.5477 10.5221 17.2626 9.83146C16.9776 9.14084 16.5592 8.51319 16.0313 7.98444C15.5035 7.45569 14.8765 7.03621 14.1864 6.75C13.4962 6.46379 12.7564 6.31647 12.0093 6.31648Z" fill="#192144"/>
<path d="M17.9043 7.41252C18.6148 7.41252 19.1907 6.83658 19.1907 6.12612C19.1907 5.41566 18.6148 4.83972 17.9043 4.83972C17.1939 4.83972 16.6179 5.41566 16.6179 6.12612C16.6179 6.83658 17.1939 7.41252 17.9043 7.41252Z" fill="#192144"/>
</symbol><symbol id="icon-mail" viewBox="0 0 24 25">
<path fill-rule="evenodd" clip-rule="evenodd" d="M19.1393 16.4663L14.8089 12.5L19.1393 8.53365L18.5488 7.90264L12.25 13.6719L5.95117 7.90264L5.36066 8.53365L9.69108 12.5L5.36066 16.4663L5.95117 17.0974L10.3308 13.0859L12.25 14.8438L14.1691 13.0859L18.5488 17.0974L19.1393 16.4663ZM4.57593 6.25C3.76692 6.25 3.11108 6.94884 3.11108 7.80786V17.1921C3.11108 18.0525 3.7616 18.75 4.57593 18.75H19.924C20.733 18.75 21.3889 18.0512 21.3889 17.1921V7.80786C21.3889 6.94748 20.7383 6.25 19.924 6.25H4.57593Z" fill="#FFD74B"/>
</symbol><symbol id="icon-page-arrows-back" viewBox="0 0 10 18">
<path d="M0 9L9.75 0.339745L9.75 17.6603L0 9Z" fill="#1D2E5B"/>
</symbol><symbol id="icon-page-arrows" viewBox="0 0 10 18">
<path d="M10 8.89478L0.25 17.555L0.25 0.234521L10 8.89478Z" fill="#1D2E5B"/>
</symbol><symbol id="icon-phone" viewBox="0 0 19 17">
<path fill-rule="evenodd" clip-rule="evenodd" d="M9.49995 1.08615C6.7035 1.08615 3.90033 1.55882 2.88322 2.50093C2.03934 3.28252 1.75804 4.66329 1.66321 5.53753C1.66321 5.53753 1.65015 5.62393 1.65015 5.66109C1.65015 6.00391 1.94445 6.27887 2.30427 6.27887C2.34678 6.27887 3.92002 6.15837 4.86851 6.08425C4.89134 6.08112 4.91434 6.07806 4.93716 6.07191C5.29043 6.0627 5.57505 5.7908 5.57505 5.45413L5.57822 4.237C5.57822 3.86014 5.90214 3.55737 6.3012 3.55737H12.6987C13.0978 3.55737 13.4218 3.86011 13.4218 4.237L13.425 5.45413C13.425 5.7908 13.7095 6.0627 14.0628 6.07191C14.0854 6.0781 14.1085 6.08112 14.1315 6.08425C15.0801 6.15834 16.6533 6.27887 16.6957 6.27887C17.0553 6.27887 17.3499 6.00391 17.3499 5.66109C17.3499 5.62393 17.3368 5.53753 17.3368 5.53753C17.2419 4.66329 16.9609 3.28255 16.117 2.50093C15.0996 1.55882 12.2964 1.08615 9.49995 1.08615ZM9.49995 9.11773C8.7771 9.11773 8.19164 9.67064 8.19164 10.3533C8.19164 11.036 8.7771 11.5889 9.49995 11.5889C10.2228 11.5889 10.8082 11.036 10.8082 10.3533C10.8082 9.67064 10.2228 9.11773 9.49995 9.11773ZM8.51873 6.33752V5.56528C8.51873 5.13902 8.15236 4.79304 7.70106 4.79304C7.24977 4.79304 6.8834 5.13905 6.8834 5.56528V6.33752L2.47095 10.7889C2.16689 11.07 1.97713 11.4622 1.97713 11.8948V13.1335C1.97713 13.8162 2.56264 14.3691 3.28545 14.3691H3.61254V15.1414C3.61254 15.5677 3.97895 15.9136 4.43025 15.9136C4.88154 15.9136 5.24792 15.5677 5.24792 15.1414V14.3691H13.752V15.1414C13.752 15.5677 14.1182 15.9136 14.5697 15.9136C15.021 15.9136 15.3873 15.5677 15.3873 15.1414V14.3691H15.7144C16.4373 14.3691 17.0227 13.8162 17.0227 13.1335V11.8948C17.0227 11.4622 16.833 11.07 16.5289 10.7889L12.1166 6.33752V5.56528C12.1166 5.13902 11.7502 4.79304 11.2989 4.79304C10.8476 4.79304 10.4812 5.13905 10.4812 5.56528V6.33752H8.51873ZM9.49995 7.8821C10.9456 7.8821 12.1166 8.98799 12.1166 10.3533C12.1166 11.7187 10.9457 12.8247 9.49995 12.8247C8.05426 12.8247 6.88336 11.7187 6.88336 10.3533C6.88336 8.98795 8.05426 7.8821 9.49995 7.8821Z" fill="#FFD74B"/>
</symbol><symbol id="icon-plane" viewBox="0 0 14 16">
<g clip-path="url(#clip3)">
<path d="M11.3455 0.801848C10.8525 0.93453 10.3572 1.06784 10.1697 1.41701L8.71437 4.48876L1.05839 6.54938L0.738368 7.52886L6.57394 8.04362L5.55374 10.6995L3.33193 11.2975L2.76427 12.3437L4.36059 12.5087L4.53353 13.3555C4.61188 13.6554 4.89628 13.8524 5.14161 13.7864L5.88221 13.5871L6.72106 15.148L7.28872 14.1019L6.76989 11.5615L8.39818 9.33652L11.3954 15.0819L12.0209 14.319L10.2337 5.56782L11.9945 2.71256C12.1843 2.36276 12.0692 1.79911 11.9535 1.23282C11.8962 0.952315 11.5908 0.735819 11.3455 0.801848Z" fill="#1D2E5B"/>
</g>

</symbol><symbol id="icon-post-mail" viewBox="0 0 19 17">
<path d="M2.0166 3.32528L8.7666 7.55572C8.9934 7.69747 9.2868 7.76467 9.582 7.76467C9.8772 7.76467 10.1706 7.69747 10.3974 7.55572L17.1474 3.32528C17.5875 3.04913 18.0033 1.97498 17.196 1.97498H1.9689C1.1616 1.97498 1.5774 3.04913 2.0166 3.32528ZM17.3517 5.63842L10.3974 9.86677C10.0914 10.0537 9.8772 10.0757 9.582 10.0757C9.2868 10.0757 9.0726 10.0537 8.7666 9.86677C8.4606 9.67987 2.3469 5.94082 1.8474 5.63737C1.4964 5.42317 1.5 5.67412 1.5 5.86732V13.525C1.5 13.966 2.0094 14.575 2.4 14.575H16.8C17.1906 14.575 17.7 13.966 17.7 13.525V5.86837C17.7 5.67517 17.7036 5.42422 17.3517 5.63842Z" fill="#161C35"/>
</symbol><symbol id="icon-ring-phone" viewBox="0 0 19 19">
<path d="M9.77429 8.22389C9.77429 8.41289 9.92792 8.56139 10.1157 8.56139C10.5048 8.56139 10.8189 8.87526 10.8189 9.25664C10.8189 9.44226 10.9725 9.59414 11.1603 9.59414C11.348 9.59414 11.5017 9.44226 11.5017 9.25664C11.5017 8.50064 10.8804 7.88639 10.1157 7.88639C9.92792 7.88639 9.77429 8.03827 9.77429 8.22389ZM15.332 9.59414C15.5231 9.59414 15.6733 9.44226 15.6733 9.25664C15.6733 6.22589 13.1813 3.76215 10.1157 3.76215C9.92792 3.76215 9.77429 3.914 9.77429 4.09965C9.77429 4.28527 9.92792 4.43715 10.1157 4.43715C12.8057 4.43715 14.9906 6.60051 14.9906 9.25664C14.9906 9.44226 15.1442 9.59414 15.332 9.59414Z" fill="#161C35"/>
<path d="M12.9047 9.25661C12.9047 9.44223 13.0583 9.59411 13.2461 9.59411C13.4339 9.59411 13.5875 9.44223 13.5875 9.25661C13.5875 7.36324 12.0308 5.82424 10.1157 5.82424C9.9279 5.82424 9.77427 5.97612 9.77427 6.16174C9.77427 6.35074 9.9279 6.49924 10.1157 6.49924C11.6553 6.49924 12.9047 7.73786 12.9047 9.25661ZM10.1157 1.69998C9.9279 1.69998 9.77427 1.85186 9.77427 2.03748C9.77427 2.22312 9.9279 2.37498 10.1157 2.37498C13.9562 2.37498 17.0798 5.46312 17.0798 9.25661C17.0798 9.44223 17.23 9.59411 17.4212 9.59411C17.6089 9.59411 17.7626 9.44223 17.7626 9.25661C17.7626 5.0885 14.3317 1.69998 10.1157 1.69998ZM13.4509 12.8139L13.0037 13.0535C12.2493 13.4619 11.6622 14.5812 10.7312 13.7375L8.30011 11.3L6.20004 9.25661C5.14495 7.92348 6.32635 7.60623 6.73941 6.85699L6.98179 6.41825C7.25489 5.91873 7.35388 5.35849 7.27196 4.79823C7.19345 4.23799 6.93741 3.72836 6.52775 3.32336C6.02935 2.83062 5.36707 2.56062 4.66042 2.56062C3.95376 2.56062 3.28807 2.83062 2.78964 3.32336L2.61556 3.49886C1.69383 4.41012 1.588 5.97948 2.31514 7.92348C3.0013 9.77973 4.3839 11.7912 6.20004 13.5867C8.96862 16.3239 12.0513 17.9 14.2634 17.9C15.1373 17.9 15.8781 17.6536 16.4039 17.1339L16.5814 16.9584C17.0764 16.469 17.3529 15.8142 17.3563 15.1089C17.3529 14.4204 17.0695 13.7454 16.5814 13.2627C15.7587 12.4494 14.4717 12.2671 13.4509 12.8139Z" fill="#161C35"/>
</symbol><symbol id="icon-run" viewBox="0 0 14 17">
<path d="M9.56128 4.24996C10.1663 4.24996 10.6567 3.6157 10.6567 2.83329C10.6567 2.05089 10.1663 1.41663 9.56128 1.41663C8.95628 1.41663 8.46582 2.05089 8.46582 2.83329C8.46582 3.6157 8.95628 4.24996 9.56128 4.24996Z" fill="#1D2E5B"/>
<path d="M8.89155 7.76969C9.01729 8.01199 9.19764 8.19839 9.40812 8.30356C9.6186 8.40874 9.84901 8.42761 10.0681 8.3576L11.8843 7.77039L11.6198 6.39623L9.80352 6.98344L9.0482 5.51931C8.88682 5.20663 8.63637 4.98917 8.35148 4.91439L6.24491 4.36898C6.00924 4.30781 5.76456 4.34869 5.54865 4.48529C5.33274 4.62189 5.15761 4.84662 5.05031 5.12477L4.14217 7.4736L5.12206 8.10756L6.0302 5.75802L7.10759 6.0371L4.32183 12.0416H1.89319V13.4583H4.32183C4.70414 13.4583 5.064 13.1948 5.26119 12.7705L6.31173 10.5067L9.14295 11.2391L10.1376 15.0988L11.1761 14.6504L10.182 10.7914C10.1206 10.5545 10.0121 10.3427 9.86728 10.1773C9.72246 10.0119 9.5465 9.89879 9.35712 9.84935L7.69256 9.41939L8.66314 7.32698L8.89155 7.76969Z" fill="#1D2E5B"/>
</symbol><symbol id="icon-vkontakte" viewBox="0 0 23 12">
<path d="M17.7664 11.8331C17.219 11.8207 16.6854 11.6573 16.2232 11.3606C15.7407 11.031 15.2975 10.6459 14.9026 10.2132C14.5761 9.88315 14.0345 9.32815 13.8268 9.32815C13.619 9.32815 13.4706 10.0181 13.478 10.5056C13.4812 10.8422 13.3564 11.167 13.1293 11.4131C12.8712 11.6263 12.5561 11.7569 12.2242 11.7881H10.7997C8.75222 11.7426 6.79178 10.9425 5.28708 9.53815C2.55676 7.01065 0.21224 2.18065 0.115789 1.97065C0.0237889 1.79521 -0.0147389 1.59616 0.00506792 1.3986C0.0248747 1.20105 0.102128 1.01386 0.227079 0.860649C0.509857 0.622256 0.867951 0.494496 1.23611 0.500649H4.26321H4.35224C4.6027 0.537588 4.84277 0.626997 5.05708 0.763149C5.25875 0.899848 5.42022 1.08899 5.5245 1.31065C5.8444 2.00295 6.2113 2.67204 6.62256 3.31315C7.5945 4.81315 8.02482 5.15815 8.18063 5.23315C8.35396 4.52985 8.40169 3.80091 8.3216 3.08065C8.3476 2.7526 8.29412 2.4231 8.16579 2.12065C8.00289 1.98893 7.80288 1.91278 7.5945 1.90315L7.05289 1.38565C6.94901 0.890649 7.49063 0.463149 7.86902 0.298149C8.62414 0.0589723 9.41638 -0.0376377 10.2061 0.013149H10.7329C11.2686 -0.000953053 11.8041 0.0494006 12.328 0.163149C13.5893 0.433149 13.5448 1.46065 13.4929 2.64565C13.4929 2.99065 13.4558 3.39565 13.4558 3.86065C13.4558 3.97315 13.4558 4.09315 13.4558 4.22065C13.4266 4.54717 13.4492 4.87631 13.5226 5.19565C14.1402 4.67331 14.6604 4.04337 15.0584 3.33565C15.4879 2.66645 15.865 1.96431 16.1861 1.23565C16.2839 1.00519 16.4516 0.812043 16.6649 0.684009C16.8782 0.555974 17.1262 0.499653 17.3732 0.523149H20.5487C20.6425 0.514104 20.7369 0.514104 20.8306 0.523149C21.5726 0.523149 22.0103 0.740649 22.1884 1.16065C22.3664 1.58065 22.3145 2.40565 20.4374 4.61815L19.6955 5.46565C19.336 5.81847 19.0264 6.21976 18.7755 6.65815C19.0565 6.98108 19.3754 7.2682 19.7251 7.51315C20.5778 8.16264 21.3283 8.93894 21.951 9.81565C22.097 9.98613 22.1925 10.1948 22.2266 10.4176C22.2608 10.6405 22.2321 10.8685 22.1439 11.0756C21.9884 11.3051 21.7803 11.4931 21.5375 11.6237C21.2946 11.7542 21.0241 11.8235 20.749 11.8256L17.9371 11.8631L17.7664 11.8331ZM13.8268 8.20315C14.4945 8.20315 15.0732 8.79565 15.689 9.41815C16.0217 9.78534 16.3951 10.1125 16.8019 10.3931C17.1096 10.6 17.4711 10.7096 17.8406 10.7081H17.9148L20.7342 10.6706C20.8732 10.6626 21.0094 10.6269 21.1348 10.5656L21.0606 10.4456C20.499 9.67196 19.8292 8.98479 19.0722 8.40565C18.1893 7.65565 17.7368 7.30315 17.6848 6.72565C17.6329 6.14815 18.0484 5.64565 18.8793 4.69315L19.6213 3.86065C20.2477 3.21479 20.7619 2.46681 21.1422 1.64815C20.9767 1.63823 20.8107 1.63823 20.6451 1.64815H17.4029C17.3443 1.6349 17.2835 1.6349 17.2248 1.64815C16.8814 2.44423 16.4719 3.20947 16.0006 3.93565C14.5984 6.05065 13.938 6.33565 13.4706 6.33565C13.3257 6.33565 13.183 6.29959 13.0551 6.23065C12.3132 5.80315 12.3132 4.85065 12.3577 4.16065C12.3577 4.04815 12.3577 3.93565 12.3577 3.83815C12.3577 3.35065 12.3577 2.93065 12.3948 2.57065C12.4542 1.31065 12.3948 1.30315 12.1129 1.23565C11.6586 1.14491 11.1958 1.10467 10.7329 1.11565H10.221C9.74988 1.10581 9.27872 1.13088 8.81127 1.19065C8.88206 1.24338 8.94459 1.30659 8.99676 1.37815C9.30278 1.8659 9.4554 2.43595 9.4345 3.01315C9.53095 4.25065 9.47902 5.86315 8.69256 6.25315C8.5533 6.31903 8.40115 6.35235 8.2474 6.35065C7.5574 6.35065 6.87482 5.69065 5.70998 3.90565C5.26298 3.22218 4.86383 2.50794 4.51547 1.76815L4.45611 1.69315C4.38118 1.65454 4.30126 1.62677 4.21869 1.61065H1.25095H1.19901C1.63676 2.52565 3.71418 6.57565 6.03643 8.69815C7.34044 9.90918 9.02993 10.6088 10.7997 10.6706H12.1722C12.2422 10.6555 12.3097 10.6303 12.3726 10.5956C12.3726 10.5956 12.3726 10.5956 12.3726 10.5281C12.3726 10.3256 12.3726 8.57815 13.5448 8.27815C13.6356 8.24202 13.7302 8.21685 13.8268 8.20315Z" fill="#192144"/>
</symbol><symbol id="icon_plus_more" viewBox="0 0 18 18">
<rect y="8.30762" width="18" height="1.38461" rx="0.692307" fill="#1D2E5B"/>
<rect x="8.30774" y="18" width="18" height="1.38461" rx="0.692307" transform="rotate(-90 8.30774 18)" fill="#1D2E5B"/>
</symbol></svg>